# xmcd
#
# Track frame offsets: 
#        150
#        32161
#        77483
#        121773
#        162575
#        187697
#        222854
#
# Disc length: 3657 seconds
#
# Revision: 0
# Processed by: cddbd v1.5.2PL0 Copyright (c) Steve Scherf et al.
# Submitted via: ExactAudioCopyFreeDBPlugin 1.0
#
DISCID=4f0e4707
DTITLE=Terry 'Harmonica' Bean With The Cornlickers - Hill Country Blue
DTITLE=s With Big Sound - Disc 1
DYEAR=2010
DGENRE=Blues
TTITLE0=Blues Man
TTITLE1=Come Back baby
TTITLE2=Help Me
TTITLE3=Love Me Slow
TTITLE4=King Bee
TTITLE5=I Wonder Who
TTITLE6=Tell Me Why
EXTD=
EXTT0=
EXTT1=
EXTT2=
EXTT3=
EXTT4=
EXTT5=
EXTT6=
PLAYORDER=
